<?xml version="1.0" encoding="utf-8"?>
<!-- Generator: Adobe Illustrator 16.0.0, SVG Export Plug-In . SVG Version: 6.00 Build 0)  -->
<!DOCTYPE svg PUBLIC "-//W3C//DTD SVG 1.1//EN" "http://www.w3.org/Graphics/SVG/1.1/DTD/svg11.dtd">
<svg version="1.1" id="Layer_1" xmlns="http://www.w3.org/2000/svg" xmlns:xlink="http://www.w3.org/1999/xlink" x="0px" y="0px"
	 width="283.293px" height="46.718px" viewBox="0 0 283.293 46.718" enable-background="new 0 0 283.293 46.718"
	 xml:space="preserve">
<g>
	<path d="M21.503,43.13H0.778V3.184h4.68v35.712h16.045V43.13z"/>
	<path d="M48.802,43.13H27.631V3.184h20.28v4.234h-15.6v13.288h14.43v4.206h-14.43v13.984h16.491V43.13z"/>
	<path d="M54.625,41.515v-5.516c0.631,0.557,1.388,1.059,2.271,1.504c0.882,0.446,1.811,0.822,2.786,1.128
		c0.975,0.307,1.954,0.543,2.938,0.71c0.984,0.167,1.895,0.251,2.73,0.251c2.878,0,5.028-0.534,6.449-1.602
		c1.421-1.067,2.131-2.604,2.131-4.61c0-1.077-0.237-2.015-0.71-2.814c-0.474-0.798-1.128-1.527-1.964-2.187
		c-0.836-0.659-1.825-1.291-2.967-1.894s-2.373-1.24-3.691-1.908c-1.393-0.706-2.693-1.421-3.9-2.145
		c-1.208-0.724-2.256-1.522-3.148-2.396c-0.891-0.873-1.592-1.862-2.103-2.967s-0.766-2.4-0.766-3.886
		c0-1.82,0.399-3.403,1.198-4.75c0.798-1.346,1.848-2.456,3.148-3.329c1.3-0.873,2.781-1.522,4.443-1.95
		c1.662-0.427,3.357-0.641,5.084-0.641c3.937,0,6.806,0.474,8.607,1.421v5.265c-2.358-1.634-5.386-2.451-9.081-2.451
		c-1.021,0-2.043,0.107-3.064,0.32c-1.021,0.214-1.932,0.562-2.73,1.044c-0.799,0.483-1.449,1.105-1.95,1.867
		c-0.501,0.762-0.752,1.69-0.752,2.786c0,1.021,0.19,1.904,0.571,2.646c0.381,0.743,0.942,1.421,1.686,2.034
		c0.743,0.613,1.648,1.208,2.716,1.783c1.068,0.576,2.298,1.208,3.691,1.895c1.43,0.706,2.786,1.448,4.067,2.229
		c1.281,0.78,2.405,1.644,3.371,2.59c0.965,0.947,1.731,1.997,2.298,3.148c0.566,1.152,0.85,2.47,0.85,3.956
		c0,1.969-0.385,3.635-1.156,5c-0.771,1.365-1.811,2.475-3.12,3.329c-1.309,0.854-2.818,1.472-4.526,1.853
		c-1.709,0.38-3.51,0.571-5.404,0.571c-0.631,0-1.412-0.051-2.34-0.153c-0.929-0.102-1.876-0.25-2.841-0.445
		c-0.966-0.195-1.88-0.437-2.744-0.725C55.836,42.188,55.144,41.868,54.625,41.515z"/>
	<path d="M84.932,41.515v-5.516c0.631,0.557,1.388,1.059,2.271,1.504c0.882,0.446,1.811,0.822,2.786,1.128
		c0.975,0.307,1.954,0.543,2.938,0.71c0.984,0.167,1.895,0.251,2.73,0.251c2.878,0,5.028-0.534,6.449-1.602
		c1.421-1.067,2.131-2.604,2.131-4.61c0-1.077-0.237-2.015-0.71-2.814c-0.474-0.798-1.128-1.527-1.964-2.187
		c-0.836-0.659-1.825-1.291-2.967-1.894s-2.373-1.24-3.691-1.908c-1.393-0.706-2.693-1.421-3.9-2.145
		c-1.208-0.724-2.256-1.522-3.148-2.396c-0.891-0.873-1.592-1.862-2.103-2.967s-0.766-2.4-0.766-3.886
		c0-1.82,0.399-3.403,1.198-4.75c0.798-1.346,1.848-2.456,3.148-3.329c1.3-0.873,2.781-1.522,4.443-1.95
		c1.662-0.427,3.357-0.641,5.084-0.641c3.937,0,6.806,0.474,8.607,1.421v5.265c-2.358-1.634-5.386-2.451-9.081-2.451
		c-1.021,0-2.043,0.107-3.064,0.32c-1.021,0.214-1.932,0.562-2.73,1.044c-0.799,0.483-1.449,1.105-1.95,1.867
		c-0.501,0.762-0.752,1.69-0.752,2.786c0,1.021,0.19,1.904,0.571,2.646c0.381,0.743,0.942,1.421,1.686,2.034
		c0.743,0.613,1.648,1.208,2.716,1.783c1.068,0.576,2.298,1.208,3.691,1.895c1.43,0.706,2.786,1.448,4.067,2.229
		c1.281,0.78,2.405,1.644,3.371,2.59c0.965,0.947,1.731,1.997,2.298,3.148c0.566,1.152,0.85,2.47,0.85,3.956
		c0,1.969-0.385,3.635-1.156,5c-0.771,1.365-1.811,2.475-3.12,3.329c-1.309,0.854-2.818,1.472-4.526,1.853
		c-1.709,0.38-3.51,0.571-5.404,0.571c-0.631,0-1.412-0.051-2.34-0.153c-0.929-0.102-1.876-0.25-2.841-0.445
		c-0.966-0.195-1.88-0.437-2.744-0.725C86.144,42.188,85.452,41.868,84.932,41.515z"/>
	<path d="M151.007,43.13h-9.025V26.862h-16.547V43.13h-8.998V3.184h8.998v15.934h16.547V3.184h9.025V43.13z"/>
	<path d="M195.271,43.13h-9.805l-2.842-8.886h-14.207l-2.813,8.886h-9.75l14.542-39.946h10.669L195.271,43.13z M180.563,27.336
		l-4.29-13.427c-0.316-1.003-0.539-2.201-0.668-3.594h-0.223c-0.093,1.17-0.325,2.331-0.696,3.482l-4.346,13.539H180.563z"/>
	<path d="M233.769,43.13h-10.334l-6.212-10.279c-0.465-0.78-0.91-1.477-1.337-2.089s-0.859-1.137-1.295-1.574
		s-0.891-0.771-1.365-1.003c-0.474-0.232-0.989-0.348-1.546-0.348h-2.424V43.13h-8.998V3.184h14.263
		c9.694,0,14.541,3.622,14.541,10.864c0,1.393-0.214,2.679-0.641,3.858c-0.428,1.18-1.031,2.243-1.811,3.19
		c-0.78,0.947-1.723,1.764-2.827,2.451c-1.105,0.687-2.335,1.226-3.691,1.616v0.111c0.594,0.186,1.17,0.487,1.727,0.905
		s1.095,0.905,1.616,1.462c0.52,0.557,1.017,1.156,1.49,1.797s0.905,1.268,1.295,1.88L233.769,43.13z M209.255,9.926V21.04h3.9
		c1.931,0,3.482-0.557,4.652-1.671c1.188-1.132,1.783-2.535,1.783-4.206c0-3.491-2.089-5.237-6.268-5.237H209.255z"/>
	<path d="M283.019,43.13h-8.886V19.229c0-2.581,0.111-5.432,0.334-8.552h-0.223c-0.464,2.451-0.882,4.216-1.253,5.292l-9.36,27.16
		h-7.354l-9.527-26.881c-0.26-0.724-0.678-2.581-1.253-5.571h-0.251c0.241,3.938,0.362,7.392,0.362,10.362v22.09h-8.106V3.184
		h13.176l8.162,23.678c0.65,1.894,1.124,3.798,1.421,5.71h0.167c0.501-2.21,1.031-4.132,1.588-5.766l8.162-23.623h12.842V43.13z"/>
</g>
</svg>
